<svg width="20" height="20" viewBox="0 0 20 20" fill="none" xmlns="http://www.w3.org/2000/svg">
<path fill-rule="evenodd" clip-rule="evenodd" d="M5.12123 1.11108C8.6545 1.11108 10.491 5.41753 7.95377 7.95458C5.41743 10.491 1.11108 8.65358 1.11108 5.12111C1.11108 2.91426 2.91431 1.11108 5.12101 1.11108H5.12123ZM14.8764 1.11108C18.4097 1.11108 20.2462 5.41753 17.709 7.95458C15.1727 10.491 10.8656 8.65443 10.8656 5.12198C10.8665 2.91339 12.6689 1.11108 14.8764 1.11108ZM5.12123 10.8657C8.6545 10.8657 10.491 15.173 7.95377 17.7092C5.41743 20.2464 1.11108 18.409 1.11108 14.8765C1.11108 12.6688 2.91431 10.8657 5.12101 10.8657H5.12123ZM14.8764 10.8657C18.4097 10.8657 20.2462 15.173 17.709 17.7092C15.1727 20.2455 10.8656 18.409 10.8656 14.8765C10.8665 12.6688 12.6689 10.8657 14.8764 10.8657Z" fill="#3F3F46"/>
</svg>
