<svg width="20" height="20" viewBox="0 0 20 20" fill="none" xmlns="http://www.w3.org/2000/svg">
<path d="M10.0006 5.41756L1.76538 10.8858V14.7046C1.76538 17.2998 3.87595 19.4104 6.47122 19.4104H8.82414V15.881C8.82414 15.2316 9.35002 14.7046 10.0006 14.7046C10.6512 14.7046 11.1771 15.2316 11.1771 15.881V19.4104H13.53C16.1253 19.4104 18.2358 17.2998 18.2358 14.7046V10.9199L10.0006 5.41756Z" fill="#4612B4"/>
<path d="M18.8229 8.23524C18.5993 8.23524 18.3723 8.17171 18.1711 8.0376L10.0006 2.59057L1.83007 8.0376C1.28654 8.39877 0.557139 8.25171 0.198319 7.71172C-0.162855 7.17172 -0.0169733 6.43996 0.524199 6.07996L9.34765 0.197646C9.74294 -0.0658819 10.2571 -0.0658819 10.6523 0.197646L19.4758 6.07996C20.017 6.43996 20.1629 7.17054 19.8017 7.71172C19.5758 8.05171 19.2017 8.23524 18.8217 8.23524H18.8229Z" fill="#4612B4"/>
</svg>
