<svg width="28" height="28" viewBox="0 0 28 28" fill="none" xmlns="http://www.w3.org/2000/svg">
<g clip-path="url(#clip0_1711_184)">
<path d="M12.8333 12.8333H0V0H12.8333V12.8333ZM2.33333 10.5H10.5V2.33333H2.33333V10.5Z" fill="#8B60E6"/>
<path d="M28.0001 12.8333H15.1667V0H28.0001V12.8333ZM17.5001 10.5H25.6667V2.33333H17.5001V10.5Z" fill="#8B60E6"/>
<path d="M12.8333 28H0V15.1667H12.8333V28ZM2.33333 25.6667H10.5V17.5H2.33333V25.6667Z" fill="#8B60E6"/>
<path d="M27.9999 23.3334H25.6666V17.5H23.3333V21H16.3333V15.1667H18.6666V18.6667H20.9999V15.1667H27.9999V23.3334Z" fill="#8B60E6"/>
<path d="M27.9999 28H16.3333V23.3333H18.6666V25.6666H27.9999V28Z" fill="#8B60E6"/>
<path d="M8.16675 4.66669H4.66675V8.16669H8.16675V4.66669Z" fill="#8B60E6"/>
<path d="M23.3333 4.66669H19.8333V8.16669H23.3333V4.66669Z" fill="#8B60E6"/>
<path d="M8.16675 19.8333H4.66675V23.3333H8.16675V19.8333Z" fill="#8B60E6"/>
</g>
<defs>
<clipPath id="clip0_1711_184">
<rect width="28" height="28" fill="white"/>
</clipPath>
</defs>
</svg>
