<svg width="318" height="21" viewBox="0 0 318 21" fill="none" xmlns="http://www.w3.org/2000/svg">
<path d="M5.62183 4.54771C6.22064 4.54771 6.78848 4.6587 7.32535 4.88067C7.86222 5.09748 8.33714 5.43819 8.75011 5.90278C9.16825 6.36221 9.49604 6.95328 9.7335 7.67599C9.97097 8.39353 10.0897 9.2582 10.0897 10.27V10.2855C10.0897 11.5399 9.90902 12.6136 9.54767 13.5067C9.18631 14.3997 8.66752 15.0863 7.99127 15.5664C7.32019 16.0413 6.51747 16.2788 5.58311 16.2788C4.89654 16.2788 4.27708 16.1549 3.72473 15.9071C3.17754 15.6541 2.72327 15.3083 2.36192 14.8695C2.00573 14.4255 1.76568 13.9196 1.64179 13.3518L1.62631 13.2666H3.58535L3.61632 13.3441C3.71441 13.6022 3.85378 13.8293 4.03446 14.0255C4.2203 14.2216 4.44227 14.3739 4.70038 14.4823C4.96365 14.5856 5.2579 14.6372 5.58311 14.6372C6.1716 14.6372 6.65169 14.4643 7.02336 14.1184C7.4002 13.7674 7.68154 13.3002 7.86738 12.7169C8.05838 12.1284 8.16678 11.4779 8.19259 10.7656C8.19776 10.6881 8.20034 10.6133 8.20034 10.541C8.20034 10.4636 8.20034 10.3887 8.20034 10.3164L7.85189 8.45032C7.85189 8.02702 7.75381 7.64243 7.55765 7.29657C7.36148 6.9507 7.09563 6.67711 6.76009 6.47578C6.42971 6.27446 6.05545 6.1738 5.63732 6.1738C5.23467 6.1738 4.86557 6.27188 4.53003 6.46804C4.19449 6.6642 3.92606 6.93264 3.72473 7.27334C3.52341 7.60888 3.42274 7.98572 3.42274 8.40386V8.41934C3.42274 8.85297 3.51824 9.23755 3.70924 9.57309C3.90024 9.90347 4.16093 10.1642 4.49131 10.3552C4.82169 10.5462 5.19853 10.6417 5.62183 10.6417C6.04513 10.6417 6.42455 10.5487 6.76009 10.3629C7.09563 10.1771 7.36148 9.91896 7.55765 9.58858C7.75381 9.2582 7.85189 8.88394 7.85189 8.4658V8.45032H8.31649V10.51H8.04547C7.91126 10.8043 7.71251 11.0779 7.44924 11.3308C7.18597 11.5838 6.86075 11.7877 6.47359 11.9425C6.09159 12.0974 5.64248 12.1748 5.12626 12.1748C4.41388 12.1748 3.7841 12.0148 3.2369 11.6947C2.68971 11.3747 2.25867 10.9359 1.94378 10.3784C1.63405 9.82087 1.47918 9.19109 1.47918 8.48903V8.47355C1.47918 7.71471 1.6547 7.04104 2.00573 6.45255C2.36192 5.8589 2.85232 5.39431 3.47695 5.05877C4.10673 4.71806 4.82169 4.54771 5.62183 4.54771ZM13.6051 14.4978C13.2541 14.4978 12.9599 14.3817 12.7224 14.1494C12.4901 13.9119 12.374 13.6228 12.374 13.2821C12.374 12.9362 12.4901 12.6472 12.7224 12.4149C12.9599 12.1774 13.2541 12.0587 13.6051 12.0587C13.9613 12.0587 14.2556 12.1774 14.4879 12.4149C14.7202 12.6472 14.8363 12.9362 14.8363 13.2821C14.8363 13.6228 14.7202 13.9119 14.4879 14.1494C14.2556 14.3817 13.9613 14.4978 13.6051 14.4978ZM13.6051 8.7523C13.2541 8.7523 12.9599 8.63615 12.7224 8.40386C12.4901 8.1664 12.374 7.87731 12.374 7.53661C12.374 7.19074 12.4901 6.90166 12.7224 6.66936C12.9599 6.4319 13.2541 6.31317 13.6051 6.31317C13.9613 6.31317 14.2556 6.4319 14.4879 6.66936C14.7202 6.90166 14.8363 7.19074 14.8363 7.53661C14.8363 7.87731 14.7202 8.1664 14.4879 8.40386C14.2556 8.63615 13.9613 8.7523 13.6051 8.7523ZM22.5409 16V13.8551H17.0741V12.2213C17.3684 11.7206 17.6626 11.2172 17.9569 10.7113C18.2563 10.2055 18.5582 9.70214 18.8628 9.20141C19.1725 8.69552 19.4797 8.19737 19.7843 7.70696C20.094 7.21139 20.4011 6.72357 20.7057 6.24348C21.0154 5.75824 21.3252 5.2859 21.6349 4.82647H24.4457V12.2058H25.9556V13.8551H24.4457V16H22.5409ZM18.9325 12.2523H22.5718V6.42158H22.4557C22.2286 6.77261 21.9937 7.13396 21.7511 7.50564C21.5136 7.87731 21.2736 8.25673 21.0309 8.6439C20.7883 9.03106 20.5483 9.42081 20.3108 9.81313C20.0733 10.2003 19.8385 10.59 19.6062 10.9824C19.3739 11.3695 19.1493 11.7541 18.9325 12.1361V12.2523ZM30.5784 16V6.79326H30.439L27.6592 8.7523V6.87843L30.5784 4.82647H32.5684V16H30.5784Z" fill="white"/>
<path fill-rule="evenodd" clip-rule="evenodd" d="M264.915 5.86662C264.915 5.2761 264.482 4.79738 263.947 4.79738H262.978C262.444 4.79738 262.01 5.2761 262.01 5.86662V15.1334C262.01 15.7239 262.444 16.2026 262.978 16.2026H263.947C264.482 16.2026 264.915 15.7239 264.915 15.1334V5.86662ZM258.166 7.07843H259.134C259.669 7.07843 260.103 7.56863 260.103 8.17333V15.1077C260.103 15.7124 259.669 16.2026 259.134 16.2026H258.166C257.631 16.2026 257.197 15.7124 257.197 15.1077V8.17333C257.197 7.56863 257.631 7.07843 258.166 7.07843ZM254.233 9.54955H253.265C252.73 9.54955 252.296 10.046 252.296 10.6584V15.0938C252.296 15.7062 252.73 16.2026 253.265 16.2026H254.233C254.768 16.2026 255.201 15.7062 255.201 15.0938V10.6584C255.201 10.046 254.768 9.54955 254.233 9.54955ZM249.42 11.8306H248.452C247.917 11.8306 247.484 12.32 247.484 12.9236V15.1096C247.484 15.7133 247.917 16.2026 248.452 16.2026H249.42C249.955 16.2026 250.389 15.7133 250.389 15.1096V12.9236C250.389 12.32 249.955 11.8306 249.42 11.8306Z" fill="white"/>
<path fill-rule="evenodd" clip-rule="evenodd" d="M279.052 7.05049C281.31 7.05059 283.482 7.91074 285.119 9.45317C285.242 9.57225 285.439 9.57075 285.56 9.4498L286.738 8.27119C286.8 8.20985 286.834 8.12676 286.833 8.0403C286.833 7.95384 286.798 7.87115 286.735 7.81053C282.44 3.72963 275.664 3.72963 271.369 7.81053C271.306 7.87111 271.271 7.95377 271.271 8.04023C271.27 8.12669 271.304 8.2098 271.366 8.27119L272.544 9.4498C272.665 9.57093 272.862 9.57243 272.985 9.45317C274.622 7.91064 276.794 7.05049 279.052 7.05049ZM279.049 10.9873C280.282 10.9872 281.47 11.4646 282.383 12.3267C282.507 12.449 282.702 12.4464 282.822 12.3207L283.991 11.09C284.052 11.0254 284.086 10.9379 284.086 10.8469C284.085 10.7559 284.049 10.669 283.986 10.6058C281.204 7.90911 276.897 7.90911 274.115 10.6058C274.052 10.669 274.016 10.7559 274.015 10.8469C274.015 10.938 274.049 11.0255 274.111 11.09L275.279 12.3207C275.399 12.4464 275.594 12.449 275.718 12.3267C276.63 11.4652 277.818 10.9878 279.049 10.9873ZM281.341 13.5932C281.343 13.6915 281.309 13.7863 281.248 13.8551L279.272 16.145C279.214 16.2123 279.135 16.2501 279.053 16.2501C278.97 16.2501 278.891 16.2123 278.833 16.145L276.857 13.8551C276.796 13.7862 276.762 13.6914 276.764 13.5932C276.766 13.4949 276.803 13.4018 276.866 13.3359C278.129 12.1103 279.977 12.1103 281.239 13.3359C281.303 13.4019 281.34 13.495 281.341 13.5932Z" fill="white"/>
<rect opacity="0.35" x="293.655" y="4.90299" width="21.7647" height="11.194" rx="3.54478" fill="white" stroke="white" stroke-width="0.932836"/>
<path opacity="0.4" d="M316.794 8.89657V12.6983C317.525 12.3763 318 11.6273 318 10.7974C318 9.96759 317.525 9.21856 316.794 8.89657Z" fill="white"/>
<rect x="295.005" y="6.30224" width="19.0659" height="8.39552" rx="2.33209" fill="white"/>
</svg>
