<svg width="21" height="21" viewBox="0 0 21 21" fill="none" xmlns="http://www.w3.org/2000/svg">
<path d="M0.5 6.94829C0.5 4.53955 2.22276 2.48246 4.57862 2.0766L13.6297 0.519887C14.2283 0.417033 14.8241 0.721426 15.0959 1.26906L15.169 1.41639" stroke="#F8FAFC" stroke-linecap="round" stroke-linejoin="round"/>
<path d="M19.1207 14.9404V17.7202C19.1207 19.2561 17.8862 20.5001 16.3621 20.5001H3.25862C1.73448 20.5001 0.5 19.2561 0.5 17.7202V7.29578C0.5 5.75991 1.73448 4.51593 3.25862 4.51593H16.3621C17.8862 4.51593 19.1207 5.75991 19.1207 7.29578V10.0756" stroke="#F8FAFC" stroke-linecap="round" stroke-linejoin="round"/>
<path d="M19.1207 14.9403H15.3276C13.9952 14.9403 12.9138 13.8506 12.9138 12.508C12.9138 11.1639 13.9952 10.0756 15.3276 10.0756H19.1207C19.8821 10.0756 20.5 10.6983 20.5 11.4655V13.5504C20.5 14.3176 19.8821 14.9403 19.1207 14.9403Z" stroke="#F8FAFC" stroke-linecap="round" stroke-linejoin="round"/>
</svg>
