<svg width="18" height="17" viewBox="0 0 18 17" fill="none" xmlns="http://www.w3.org/2000/svg">
<path d="M0.5 5.65477C0.5 3.72921 1.88778 2.08477 3.78556 1.76032L11.0767 0.51588C11.5589 0.433657 12.0389 0.676991 12.2578 1.11477L12.3167 1.23255" stroke="#27272A" stroke-linecap="round" stroke-linejoin="round"/>
<path d="M15.5 12.0437V14.2659C15.5 15.4937 14.5056 16.4881 13.2778 16.4881H2.72222C1.49444 16.4881 0.5 15.4937 0.5 14.2659V5.93255C0.5 4.70477 1.49444 3.71033 2.72222 3.71033H13.2778C14.5056 3.71033 15.5 4.70477 15.5 5.93255V8.15477" stroke="#27272A" stroke-linecap="round" stroke-linejoin="round"/>
<path d="M15.5 12.0436H12.4444C11.3711 12.0436 10.5 11.1725 10.5 10.0992C10.5 9.02475 11.3711 8.15475 12.4444 8.15475H15.5C16.1133 8.15475 16.6111 8.65253 16.6111 9.26587V10.9325C16.6111 11.5459 16.1133 12.0436 15.5 12.0436Z" stroke="#27272A" stroke-linecap="round" stroke-linejoin="round"/>
</svg>
